# xmcd
#
# Track frame offsets: 
#        150
#        18978
#        33849
#        49857
#        65824
#
# Disc length: 1065 seconds
#
# Revision: 0
# Processed by: cddbd v1.5.2PL0 Copyright (c) Steve Scherf et al.
# Submitted via: ExactAudioCopy v0.99pb4
#
DISCID=3c042705
DTITLE=Troy Cartwright - Shut Down The City
DYEAR=2008
DGENRE=Blues
TTITLE0=Hold On
TTITLE1=No Time To Worry Now
TTITLE2=Don't Pass Me By
TTITLE3=Hallucinating
TTITLE4=Shut Down The City
EXTD=
EXTT0=
EXTT1=
EXTT2=
EXTT3=
EXTT4=
PLAYORDER=
